<?xml version="1.0" encoding="UTF-8"?>
<svg id="Layer_2" data-name="Layer 2" xmlns="http://www.w3.org/2000/svg" xmlns:xlink="http://www.w3.org/1999/xlink" viewBox="0 0 350 280.22">
  <defs>
    <style>
      .cls-1 {
        fill: url(#radial-gradient);
      }
    </style>
    <radialGradient id="radial-gradient" cx="175" cy="140.11" fx="175" fy="140.11" r="158.52" gradientUnits="userSpaceOnUse">
      <stop offset="0" stop-color="#c8b273"/>
      <stop offset="1" stop-color="#000"/>
    </radialGradient>
  </defs>
  <g id="Layer_1-2" data-name="Layer 1">
    <path class="cls-1" d="m134.07,280.22c-45.97,0-80.22-16.02-102.75-48.08C10.44,202.47,0,159.71,0,103.85V0h16.76c47.25,0,81.59,9.16,103.02,27.47,20.88,18.32,31.32,47.99,31.32,89.01v163.74h-17.03Zm64.84-163.74c0-41.02,10.44-70.69,31.32-89.01C251.65,9.16,285.99,0,333.24,0h16.76v103.85c0,85.16-24.36,139.75-73.08,163.74-17.03,8.43-37.46,12.64-61.26,12.64h-16.76V116.48Z"/>
  </g>
</svg>