<?xml version="1.0" encoding="UTF-8"?>
<svg id="Layer_2" data-name="Layer 2" xmlns="http://www.w3.org/2000/svg" xmlns:xlink="http://www.w3.org/1999/xlink" viewBox="0 0 350 97.52">
  <defs>
    <style>
      .cls-1 {
        fill: url(#radial-gradient);
      }
    </style>
    <radialGradient id="radial-gradient" cx="60.9" cy="48.76" fx="60.9" fy="48.76" r="55.16" gradientUnits="userSpaceOnUse">
      <stop offset="0" stop-color="#c8b273"/>
      <stop offset="1" stop-color="#000"/>
    </radialGradient>
  </defs>
  <g id="Layer_1-2" data-name="Layer 1">
    <g>
      <path class="cls-1" d="m46.65,97.52c-16,0-27.92-5.58-35.76-16.73C3.63,70.46,0,55.58,0,36.14V0h5.83c16.44,0,28.39,3.19,35.85,9.56,7.27,6.37,10.9,16.7,10.9,30.98v56.98h-5.93Zm22.56-56.98c0-14.28,3.63-24.6,10.9-30.98C87.57,3.19,99.52,0,115.97,0h5.83v36.14c0,29.64-8.48,48.63-25.43,56.98-5.93,2.93-13.04,4.4-21.32,4.4h-5.83v-56.98Z"/>
      <g>
        <path d="m152.39,27.91h6.51v31.67h-6.51v-31.67Zm5.73,13.07h25.11v5.43h-25.11v-5.43Zm24.03-13.07h6.51v31.67h-6.51v-31.67Z"/>
        <path d="m207.22,60.11c-2.42,0-4.61-.53-6.58-1.59-1.97-1.06-3.54-2.55-4.7-4.45-1.16-1.91-1.74-4.12-1.74-6.63s.59-4.81,1.76-6.71c1.17-1.89,2.77-3.37,4.77-4.43,2.01-1.06,4.28-1.59,6.83-1.59,2.81,0,5.07.56,6.78,1.69,1.71,1.13,2.96,2.65,3.74,4.58.78,1.93,1.17,4.08,1.17,6.46,0,1.44-.23,2.9-.69,4.38-.46,1.49-1.16,2.86-2.1,4.11-.95,1.26-2.19,2.27-3.72,3.03-1.53.77-3.38,1.15-5.53,1.15Zm2.06-4.89c1.92,0,3.59-.33,4.99-.98,1.4-.65,2.48-1.57,3.23-2.74.75-1.17,1.13-2.53,1.13-4.06,0-1.66-.38-3.08-1.15-4.23-.77-1.16-1.84-2.04-3.23-2.64-1.39-.6-3.04-.91-4.97-.91-2.71,0-4.81.71-6.31,2.13-1.5,1.42-2.25,3.3-2.25,5.65,0,1.57.36,2.93,1.08,4.09.72,1.16,1.72,2.06,3.01,2.72,1.29.65,2.78.98,4.48.98Zm9.35-19.97h6.36v24.33h-5.92c-.16-1.27-.28-2.4-.34-3.38-.07-.98-.1-1.94-.1-2.89v-18.06Z"/>
        <path d="m252.89,47.88l.05,1.66c-.07.46-.23,1.12-.49,1.98-.26.86-.66,1.79-1.2,2.77s-1.23,1.92-2.08,2.81c-.85.9-1.89,1.63-3.13,2.2-1.24.57-2.71.86-4.41.86-1.34,0-2.65-.16-3.94-.49-1.29-.33-2.46-.87-3.5-1.64-1.04-.77-1.88-1.8-2.5-3.11-.62-1.3-.93-2.95-.93-4.94v-14.73h6.36v13.66c0,1.57.25,2.8.76,3.7.51.9,1.25,1.53,2.23,1.88.98.36,2.14.54,3.48.54,1.76,0,3.28-.38,4.55-1.15,1.27-.77,2.31-1.7,3.11-2.81.8-1.11,1.35-2.17,1.64-3.18Zm6.02,11.7h-6.36v-24.33h6.36v24.33Z"/>
        <path d="m262.97,35.25h18.89v4.94h-18.89v-4.94Zm6.27-6.66h6.36v30.99h-6.36v-30.99Z"/>
        <path d="m297.77,60.11c-2.42,0-4.61-.53-6.58-1.59-1.97-1.06-3.54-2.55-4.7-4.45-1.16-1.91-1.74-4.12-1.74-6.63s.59-4.81,1.76-6.71c1.17-1.89,2.77-3.37,4.77-4.43,2.01-1.06,4.28-1.59,6.83-1.59,2.81,0,5.07.56,6.78,1.69,1.71,1.13,2.96,2.65,3.74,4.58.78,1.93,1.17,4.08,1.17,6.46,0,1.44-.23,2.9-.69,4.38-.46,1.49-1.16,2.86-2.1,4.11-.95,1.26-2.19,2.27-3.72,3.03-1.53.77-3.38,1.15-5.53,1.15Zm2.06-4.89c1.92,0,3.59-.33,4.99-.98,1.4-.65,2.48-1.57,3.23-2.74.75-1.17,1.13-2.53,1.13-4.06,0-1.66-.38-3.08-1.15-4.23-.77-1.16-1.84-2.04-3.23-2.64-1.39-.6-3.04-.91-4.97-.91-2.71,0-4.81.71-6.31,2.13-1.5,1.42-2.25,3.3-2.25,5.65,0,1.57.36,2.93,1.08,4.09.72,1.16,1.72,2.06,3.01,2.72,1.29.65,2.78.98,4.48.98Zm9.35-19.97h6.36v24.33h-5.92c-.16-1.27-.28-2.4-.34-3.38-.07-.98-.1-1.94-.1-2.89v-18.06Z"/>
        <path d="m333.46,55.86c-2.64,0-4.97-.4-6.98-1.2-2.01-.8-3.57-1.98-4.67-3.55-1.11-1.57-1.66-3.46-1.66-5.68s.54-4.08,1.62-5.68c1.08-1.6,2.62-2.84,4.63-3.72,2.01-.88,4.36-1.32,7.07-1.32.75,0,1.48.05,2.18.15.7.1,1.4.23,2.08.39l12.29.05v4.8c-1.66.03-3.35-.17-5.07-.61s-3.22-.92-4.53-1.44l-.15-.34c1.11.52,2.15,1.17,3.13,1.93.98.77,1.77,1.65,2.37,2.64.6,1,.91,2.15.91,3.45,0,2.12-.54,3.94-1.62,5.46-1.08,1.52-2.6,2.68-4.58,3.48-1.97.8-4.32,1.2-7.02,1.2Zm8.17,13.76v-1.17c0-1.5-.48-2.55-1.44-3.13-.96-.59-2.28-.88-3.94-.88h-7.59c-1.47,0-2.7-.11-3.7-.34-1-.23-1.79-.56-2.37-.98-.59-.42-1.01-.92-1.27-1.49-.26-.57-.39-1.18-.39-1.84,0-1.3.42-2.29,1.27-2.96.85-.67,1.99-1.12,3.43-1.35,1.44-.23,3.02-.28,4.75-.15l3.08.54c-2.06.07-3.58.24-4.58.51-1,.28-1.49.82-1.49,1.64,0,.49.2.87.59,1.15.39.28.95.42,1.66.42h7.98c2.19,0,4.05.24,5.6.71,1.55.47,2.73,1.27,3.55,2.4.82,1.13,1.22,2.67,1.22,4.63v2.3h-6.36Zm-8.17-18.36c1.4,0,2.63-.23,3.7-.69,1.06-.46,1.88-1.12,2.47-1.98.59-.86.88-1.9.88-3.11s-.29-2.3-.88-3.18c-.59-.88-1.4-1.56-2.45-2.03-1.04-.47-2.28-.71-3.72-.71s-2.64.24-3.72.71c-1.08.47-1.91,1.15-2.5,2.03s-.88,1.94-.88,3.18.29,2.24.88,3.11c.59.86,1.41,1.53,2.47,1.98,1.06.46,2.31.69,3.74.69Z"/>
      </g>
    </g>
  </g>
</svg>